<svg width="1657" height="1137" viewBox="0 0 1657 1137" fill="none" xmlns="http://www.w3.org/2000/svg">
<g id="AsmaronLevel1">
<path fill-rule="evenodd" clip-rule="evenodd" d="M141 1076.5C265.457 1132.78 486 1134 486 1134C486 1134 805.163 1157.2 931.5 1031C1035.14 927.48 959.689 787.802 1055.5 677C1157.97 558.494 1335.59 635.458 1416 501C1459.14 428.855 1655.5 259 1655.5 259C1655.5 259 1326.32 24.5259 1195 4.49998C1123.03 -6.47475 956.419 10.0927 892 44C799.284 92.802 750 259 750 259C750 259 813.333 380 789 501C764.667 622 592 861.5 592 861.5L262 910L1.5 992C1.5 992 82.9645 1050.26 141 1076.5ZM1304 292C1304 292 1204.87 280.273 1168 259C1132.12 238.299 1055.5 168.5 1055.5 168.5L1168 147L1304 292Z" fill="url(#paint0_linear_702_9)"/>
<path d="M1168 259C1204.87 280.273 1304 292 1304 292L1168 147L1055.5 168.5C1055.5 168.5 1132.12 238.299 1168 259Z" fill="#FAFF00"/>
<path fill-rule="evenodd" clip-rule="evenodd" d="M141 1076.5C265.457 1132.78 486 1134 486 1134C486 1134 805.163 1157.2 931.5 1031C1035.14 927.48 959.689 787.802 1055.5 677C1157.97 558.494 1335.59 635.458 1416 501C1459.14 428.855 1655.5 259 1655.5 259C1655.5 259 1326.32 24.5259 1195 4.49998C1123.03 -6.47475 956.419 10.0927 892 44C799.284 92.802 750 259 750 259C750 259 813.333 380 789 501C764.667 622 592 861.5 592 861.5L262 910L1.5 992C1.5 992 82.9645 1050.26 141 1076.5ZM1304 292C1304 292 1204.87 280.273 1168 259C1132.12 238.299 1055.5 168.5 1055.5 168.5L1168 147L1304 292Z" stroke="black"/>
<path d="M1168 259C1204.87 280.273 1304 292 1304 292L1168 147L1055.5 168.5C1055.5 168.5 1132.12 238.299 1168 259Z" stroke="black"/>
</g>
<defs>
<linearGradient id="paint0_linear_702_9" x1="1225.5" y1="71.4999" x2="589.5" y2="1201" gradientUnits="userSpaceOnUse">
<stop stop-color="#E74949"/>
<stop offset="0.0898694" stop-color="#E75449" stop-opacity="0.973938"/>
<stop offset="1" stop-color="#FCA92C" stop-opacity="0.94"/>
</linearGradient>
</defs>
</svg>
